LG_Walk_Normal09																		
version=1																		
nRows=99																		
nColumns=19																		
inDegrees=yes																		
endheader																		
time	ground_force2_vx	ground_force2_vy	ground_force2_vz	ground_force2_px	ground_force2_py	ground_force2_pz	ground_torque2_x	ground_torque2_y	ground_torque2_z	ground_force1_vx	ground_force1_vy	ground_force1_vz	ground_force1_px	ground_force1_py	ground_force1_pz	ground_torque1_x	ground_torque1_y	ground_torque1_z
6.83	0	0	0	0.2	0	-0.3	0	0	0	51.92836	707.421753	84.858711	-0.119328	0	0.36698	-7.00E-06	-0.848165	-1.00E-06
6.831	0	0	0	0.2	0	-0.3	0	0	0	51.456924	705.865417	84.624001	-0.119251	0	0.367097	-7.00E-06	-0.883345	-1.00E-06
6.832	0	0	0	0.2	0	-0.3	0	0	0	51.221207	705.865417	84.624001	-0.119157	0	0.367221	-1.50E-05	-0.859699	-2.00E-06
6.833	0	0	0	0.2	0	-0.3	0	0	0	50.829067	699.344666	84.781105	-0.119157	0	0.367319	-1.50E-05	-0.859699	-6.00E-06
6.834	0	0	0	0.2	0	-0.3	0	0	0	50.049114	697.441895	86.191444	-0.119119	0	0.3676	-9.00E-06	-0.857901	-5.00E-06
6.835	0	0	0	0.2	0	-0.3	0	0	0	49.344124	697.441895	86.348434	-0.119287	0	0.367906	-4.00E-06	-0.857901	-5.00E-06
6.836	0	0	0	0.2	0	-0.3	0	0	0	48.791233	696.76178	86.426888	-0.119202	0	0.36806	-4.00E-06	-0.908415	-4.00E-06
6.837	0	0	0	0.2	0	-0.3	0	0	0	48.789066	695.228271	86.426888	-0.119202	0	0.368908	-4.00E-06	-0.984603	-4.00E-06
6.838	0	0	0	0.2	0	-0.3	0	0	0	48.789066	686.275208	87.288963	-0.118667	0	0.368908	-8.00E-06	-0.933577	-2.00E-06
6.839	0	0	0	0.2	0	-0.3	0	0	0	45.744221	686.275208	87.602371	-0.118667	0	0.368903	-1.50E-05	-0.98325	-2.00E-06
6.84	0	0	0	0.2	0	-0.3	0	0	0	45.744221	686.275208	87.524078	-0.118488	0	0.368903	-1.50E-05	-0.98325	-2.00E-06
6.841	0	0	0	0.2	0	-0.3	0	0	0	45.665649	684.221985	87.602371	-0.118434	0	0.368915	-1.00E-05	-0.98325	-2.00E-06
6.842	0	0	0	0.2	0	-0.3	0	0	0	45.665649	683.356018	88.385872	-0.118434	0	0.369326	-5.00E-06	-0.978205	-2.00E-06
6.843	0	0	0	0.2	0	-0.3	0	0	0	45.195656	683.019226	88.620903	-0.118411	0	0.369647	-5.00E-06	-0.978205	-2.00E-06
6.844	0	0	0	0.2	0	-0.3	0	0	0	43.63142	675.460266	89.952965	-0.118679	0	0.369677	-5.00E-06	-1.042929	-5.00E-06
6.845	0	0	0	0.2	0	-0.3	0	0	0	43.63142	674.963074	89.952965	-0.11871	0	0.369867	-6.00E-06	-1.042929	-5.00E-06
6.846	0	0	0	0.2	0	-0.3	0	0	0	43.08358	674.606201	90.109787	-0.11871	0	0.369926	-6.00E-06	-0.905734	-5.00E-06
6.847	0	0	0	0.2	0	-0.3	0	0	0	42.695766	671.333374	89.718056	-0.118488	0	0.369867	-9.00E-06	-0.905734	-6.00E-06
6.848	0	0	0	0.2	0	-0.3	0	0	0	42.540066	670.322388	90.501801	-0.118388	0	0.370393	-1.00E-05	-0.798129	-6.00E-06
6.849	0	0	0	0.2	0	-0.3	0	0	0	41.20866	664.994019	90.501801	-0.118488	0	0.370393	-1.00E-05	-0.971727	0
6.85	0	0	0	0.2	0	-0.3	0	0	0	41.207939	658.973633	90.501801	-0.118388	0	0.370527	-1.00E-05	-0.947015	0
6.851	0	0	0	0.2	0	-0.3	0	0	0	40.582245	658.973633	90.971786	-0.1182	0	0.370563	-1.30E-05	-0.959951	-4.00E-06
6.852	0	0	0	0.2	0	-0.3	0	0	0	40.426544	658.973633	90.267014	-0.118167	0	0.371005	-1.30E-05	-0.959951	-4.00E-06
6.853	0	0	0	0.2	0	-0.3	0	0	0	39.800129	649.18158	90.580536	-0.11814	0	0.370956	-1.30E-05	-0.959951	-4.00E-06
6.854	0	0	0	0.2	0	-0.3	0	0	0	38.706604	648.679077	90.580536	-0.117837	0	0.371139	-6.00E-06	-0.922264	-4.00E-06
6.855	0	0	0	0.2	0	-0.3	0	0	0	38.628033	645.925354	90.659149	-0.11814	0	0.370961	-6.00E-06	-0.842239	-2.00E-06
6.856	0	0	0	0.2	0	-0.3	0	0	0	38.235168	643.378357	90.659149	-0.118001	0	0.371139	-4.00E-06	-0.794724	-2.00E-06
6.857	0	0	0	0.2	0	-0.3	0	0	0	38.235168	639.592163	91.051155	-0.118001	0	0.371429	-8.00E-06	-0.699742	-2.00E-06
6.858	0	0	0	0.2	0	-0.3	0	0	0	37.689491	629.78241	90.738045	-0.117585	0	0.372523	-1.30E-05	-0.699742	-4.00E-06
6.859	0	0	0	0.2	0	-0.3	0	0	0	35.813133	629.64856	91.835152	-0.117585	0	0.372523	-1.30E-05	-0.709875	-1.00E-06
6.86	0	0	0	0.2	0	-0.3	0	0	0	35.813133	626.345581	91.835152	-0.117911	0	0.372768	-1.30E-05	-0.709875	-3.00E-06
6.861	0	0	0	0.2	0	-0.3	0	0	0	35.338089	625.349609	92.619057	-0.118154	0	0.372542	-1.10E-05	-0.690802	-3.00E-06
6.862	0	0	0	0.2	0	-0.3	0	0	0	35.338089	618.655823	92.619057	-0.117911	0	0.372678	-1.40E-05	-0.612256	-3.00E-06
6.863	0	0	0	0.2	0	-0.3	0	0	0	34.713116	616.937378	92.462601	-0.117768	0	0.372678	-1.60E-05	-0.612256	-4.00E-06
6.864	0	0	0	0.2	0	-0.3	0	0	0	34.557415	610.758057	92.462601	-0.117687	0	0.37342	-2.30E-05	-0.612256	-1.00E-06
6.865	0	0	0	0.2	0	-0.3	0	0	0	34.089588	603.727051	92.854576	-0.117687	0	0.373794	-1.60E-05	-0.592814	-4.00E-06
6.866	0	0	0	0.2	0	-0.3	0	0	0	33.538136	602.509399	93.403015	-0.117562	0	0.373829	-2.00E-05	-0.615845	-2.00E-06
6.867	0	0	0	0.2	0	-0.3	0	0	0	33.461006	598.726929	93.403015	-0.117048	0	0.373794	-9.00E-06	-0.614494	-4.00E-06
6.868	0	0	0	0.2	0	-0.3	0	0	0	32.758904	595.996094	93.87323	-0.117048	0	0.374468	-1.40E-05	-0.614494	-4.00E-06
6.869	0	0	0	0.2	0	-0.3	0	0	0	32.758904	586.039734	94.343658	-0.117048	0	0.374543	-9.00E-06	-0.456389	-7.00E-06
6.87	0	0	0	0.2	0	-0.3	0	0	0	32.758904	580.404785	94.578644	-0.117169	0	0.374543	-1.40E-05	-0.456389	-5.00E-06
6.871	0	0	0	0.2	0	-0.3	0	0	0	31.350372	579.494019	94.343658	-0.11705	0	0.375048	-1.60E-05	-0.424144	-5.00E-06
6.872	0	0	0	0.2	0	-0.3	0	0	0	31.194668	577.637146	93.638802	-0.11705	0	0.375048	-1.60E-05	-0.438907	-4.00E-06
6.873	0	0	0	0.2	0	-0.3	0	0	0	31.194668	566.124817	93.638802	-0.116387	0	0.375048	-1.70E-05	-0.424144	-2.00E-06
6.874	0	0	0	0.2	0	-0.3	0	0	0	29.712616	561.840637	93.717255	-0.116387	0	0.375111	-1.70E-05	-0.331808	-4.00E-06
6.875	0	0	0	0.2	0	-0.3	0	0	0	29.397604	558.919495	93.717255	-0.116841	0	0.376047	-1.70E-05	-0.323295	-4.00E-06
6.876	0	0	0	0.2	0	-0.3	0	0	0	29.242624	554.114136	93.090691	-0.116841	0	0.376047	-1.20E-05	-0.26412	-5.00E-06
6.877	0	0	0	0.2	0	-0.3	0	0	0	29.242624	548.975952	93.090691	-0.116523	0	0.376351	-9.00E-06	-0.235662	-5.00E-06
6.878	0	0	0	0.2	0	-0.3	0	0	0	28.774075	540.545593	93.090691	-0.116494	0	0.376942	-1.20E-05	-0.199021	-5.00E-06
6.879	0	0	0	0.2	0	-0.3	0	0	0	26.664883	534.895447	92.699036	-0.116333	0	0.377006	-1.30E-05	-0.198278	-3.00E-06
6.88	0	0	0	0.2	0	-0.3	0	0	0	26.664883	534.563293	92.699036	-0.116494	0	0.377171	-1.30E-05	-0.181978	-3.00E-06
6.881	0	0	0	0.2	0	-0.3	0	0	0	26.428444	527.875183	92.54274	-0.116394	0	0.377171	-3.00E-06	0.077375	-3.00E-06
6.882	0	0	0	0.2	0	-0.3	0	0	0	26.428444	520.309265	92.307907	-0.11644	0	0.377146	-3.00E-06	0.077375	-3.00E-06
6.883	0	0	0	0.2	0	-0.3	0	0	0	25.332756	517.24469	92.151215	-0.116394	0	0.377146	-1.00E-06	-0.091927	-3.00E-06
6.884	0	0	0	0.2	0	-0.3	0	0	0	25.019188	509.330811	92.151215	-0.116307	0	0.377935	-1.10E-05	-0.091927	-3.00E-06
6.885	0	0	0	0.2	0	-0.3	0	0	0	25.019188	502.653534	91.916336	-0.116307	0	0.378222	-1.10E-05	-0.06713	-3.00E-06
6.886	0	0	0	0.2	0	-0.3	0	0	0	24.785637	499.579681	91.759872	-0.116307	0	0.378222	-1.10E-05	0.034887	-2.00E-06
6.887	0	0	0	0.2	0	-0.3	0	0	0	24.629215	492.86499	91.524765	-0.115596	0	0.379019	-4.00E-06	0.034887	-2.00E-06
6.888	0	0	0	0.2	0	-0.3	0	0	0	23.688507	488.582703	90.741615	-0.115596	0	0.379019	-4.00E-06	0.034887	-2.00E-06
6.889	0	0	0	0.2	0	-0.3	0	0	0	23.688507	471.410278	90.663368	-0.115363	0	0.379019	-6.00E-06	0.158806	-1.00E-06
6.89	0	0	0	0.2	0	-0.3	0	0	0	23.688507	468.34491	90.663368	-0.116326	0	0.380383	-9.00E-06	0.21324	-2.00E-06
6.891	0	0	0	0.2	0	-0.3	0	0	0	21.657887	468.34491	90.35009	-0.116054	0	0.380383	-9.00E-06	0.224005	-2.00E-06
6.892	0	0	0	0.2	0	-0.3	0	0	0	21.657887	463.544556	89.253258	-0.116054	0	0.380421	-8.00E-06	0.224005	-2.00E-06
6.893	0	0	0	0.2	0	-0.3	0	0	0	21.657887	454.086243	89.175217	-0.115129	0	0.380951	-8.00E-06	0.213821	-4.00E-06
6.894	0	0	0	0.2	0	-0.3	0	0	0	20.407223	444.648773	89.175171	-0.115035	0	0.381187	-1.00E-05	0.213821	-2.00E-06
6.895	0	0	0	0.2	0	-0.3	0	0	0	20.172226	444.149597	88.235245	-0.115129	0	0.381739	-1.00E-05	0.351411	-2.00E-06
6.896	0	0	0	0.2	0	-0.3	0	0	0	20.171505	435.566071	87.451782	-0.115035	0	0.381973	-6.00E-06	0.351411	-2.00E-06
6.897	0	0	0	0.2	0	-0.3	0	0	0	20.171505	430.588318	87.451782	-0.114964	0	0.382311	-6.00E-06	0.351411	-3.00E-06
6.898	0	0	0	0.2	0	-0.3	0	0	0	19.543646	420.290649	87.060287	-0.114781	0	0.383367	-7.00E-06	0.299386	-4.00E-06
6.899	0	0	0	0.2	0	-0.3	0	0	0	17.90156	413.763031	86.041786	-0.114509	0	0.383367	-7.00E-06	0.466773	-4.00E-06
6.9	0	0	0	0.2	0	-0.3	0	0	0	17.899393	410.538422	86.041786	-0.114509	0	0.381843	-1.20E-05	0.441836	-4.00E-06
6.901	0	0	0	0.2	0	-0.3	0	0	0	17.740084	406.957733	85.337334	-0.114509	0	0.381843	-7.00E-06	0.441836	-4.00E-06
6.902	0	0	0	0.2	0	-0.3	0	0	0	17.740084	397.663696	85.337334	-0.114624	0	0.383284	-7.00E-06	0.388627	-1.00E-06
6.903	0	0	0	0.2	0	-0.3	0	0	0	16.647284	390.814819	84.475586	-0.114462	0	0.383572	-7.00E-06	0.388627	-1.00E-06
6.904	0	0	0	0.2	0	-0.3	0	0	0	16.100164	380.850739	83.927307	-0.114535	0	0.384449	-8.00E-06	0.480429	-1.00E-06
6.905	0	0	0	0.2	0	-0.3	0	0	0	16.335882	374.168884	83.927269	-0.114466	0	0.384749	-8.00E-06	0.501425	-1.00E-06
6.906	0	0	0	0.2	0	-0.3	0	0	0	15.943738	367.487	83.300667	-0.114466	0	0.384997	-7.00E-06	0.553103	-1.00E-06
6.907	0	0	0	0.2	0	-0.3	0	0	0	15.863723	365.432983	82.674057	-0.113979	0	0.385375	-1.00E-06	0.553103	-3.00E-06
6.908	0	0	0	0.2	0	-0.3	0	0	0	14.848053	355.464722	81.263786	-0.113979	0	0.385409	-7.00E-06	0.553103	-3.00E-06
6.909	0	0	0	0.2	0	-0.3	0	0	0	14.377339	345.873718	81.263786	-0.114009	0	0.386076	-6.00E-06	0.56188	-3.00E-06
6.91	0	0	0	0.2	0	-0.3	0	0	0	14.848053	335.732635	81.263786	-0.114009	0	0.385635	-6.00E-06	0.627752	-1.00E-06
6.911	0	0	0	0.2	0	-0.3	0	0	0	14.377339	330.962433	78.757172	-0.113925	0	0.38776	-5.00E-06	0.668951	-1.00E-06
6.912	0	0	0	0.2	0	-0.3	0	0	0	14.140179	324.945099	78.208412	-0.113504	0	0.38776	-5.00E-06	0.668951	-3.00E-06
6.913	0	0	0	0.2	0	-0.3	0	0	0	14.063771	316.16217	77.268448	-0.113425	0	0.389808	-5.00E-06	0.644711	-3.00E-06
6.914	0	0	0	0.2	0	-0.3	0	0	0	12.573778	305.20224	76.641846	-0.113425	0	0.389808	-5.00E-06	0.644711	-2.00E-06
6.915	0	0	0	0.2	0	-0.3	0	0	0	12.418077	301.110046	75.231857	-0.113864	0	0.389808	-9.00E-06	0.772621	-1.00E-06
6.916	0	0	0	0.2	0	-0.3	0	0	0	11.715975	296.132294	75.153488	-0.113864	0	0.390253	-9.00E-06	0.772621	-1.00E-06
6.917	0	0	0	0.2	0	-0.3	0	0	0	12.418077	287.027649	73.586876	-0.112645	0	0.391812	-9.00E-06	0.780208	-1.00E-06
6.918	0	0	0	0.2	0	-0.3	0	0	0	11.479536	275.702423	73.194862	-0.112403	0	0.393247	-4.00E-06	0.710277	-1.00E-06
6.919	0	0	0	0.2	0	-0.3	0	0	0	9.911694	269.005829	70.923073	-0.111505	0	0.393853	-3.00E-06	0.781663	-1.00E-06
6.92	0	0	0	0.2	0	-0.3	0	0	0	9.911694	264.72821	69.356377	-0.112403	0	0.393853	-3.00E-06	0.781663	-1.00E-06
6.921	0	0	0	0.2	0	-0.3	0	0	0	10.220933	258.065582	69.121185	-0.112637	0	0.393853	-4.00E-06	0.781663	-1.00E-06
6.922	0	0	0	0.2	0	-0.3	0	0	0	10.220933	252.89917	68.181183	-0.112637	0	0.396358	-6.00E-06	0.777086	-2.00E-06
6.923	0	0	0	0.2	0	-0.3	0	0	0	8.814565	243.641815	65.360596	-0.11222	0	0.396497	-6.00E-06	0.758983	-2.00E-06
6.924	0	0	0	0.2	0	-0.3	0	0	0	8.811679	235.062927	64.969147	-0.111897	0	0.397162	-6.00E-06	0.751546	-2.00E-06
6.925	0	0	0	0.2	0	-0.3	0	0	0	8.578847	224.416168	63.245392	-0.111897	0	0.39746	-6.00E-06	0.758983	-2.00E-06
6.926	0	0	0	0.2	0	-0.3	0	0	0	8.264558	221.183838	61.521873	-0.112162	0	0.400302	-6.00E-06	0.84034	-2.00E-06
6.927	0	0	0	0.2	0	-0.3	0	0	0	8.182376	216.886429	59.798325	-0.112162	0	0.400515	-8.00E-06	0.84034	-2.00E-06
6.928	0	0	0	0.2	0	-0.3	0	0	0	7.401702	212.948181	57.526215	-0.111531	0	0.401306	-8.00E-06	0.84034	-1.00E-06
